<?xml version="1.0" encoding="UTF-8"?>
<svg width="65px" height="65px" inkscape:version="1.0.2 (e86c870879, 2021-01-15)" sodipodi:docname="BEM_logo.svg" version="1.1" viewBox="0 0 343 139" xmlns="http://www.w3.org/2000/svg" xmlns:cc="http://creativecommons.org/ns#" xmlns:dc="http://purl.org/dc/elements/1.1/" xmlns:inkscape="http://www.inkscape.org/namespaces/inkscape" xmlns:rdf="http://www.w3.org/1999/02/22-rdf-syntax-ns#" xmlns:sodipodi="http://sodipodi.sourceforge.net/DTD/sodipodi-0.dtd">
 <sodipodi:namedview bordercolor="#666666" borderopacity="1" gridtolerance="10" guidetolerance="10" inkscape:current-layer="g891" inkscape:cx="-213.26979" inkscape:cy="83.574457" inkscape:pageopacity="0" inkscape:pageshadow="2" inkscape:window-height="1014" inkscape:window-maximized="1" inkscape:window-width="1920" inkscape:window-x="0" inkscape:window-y="36" inkscape:zoom="0.92587203" objecttolerance="10" pagecolor="#ffffff" showgrid="false"/>
 <metadata>
  <rdf:RDF>
   <cc:Work rdf:about="">
    <dc:format>image/svg+xml</dc:format>
    <dc:type rdf:resource="http://purl.org/dc/dcmitype/StillImage"/>
    <dc:title/>
   </cc:Work>
  </rdf:RDF>
 </metadata>
 <g transform="translate(-7.44 .354)">
  <g transform="matrix(.987 0 0 .943 583 189)">
   <path d="m-295-57.2c-.367-.367-.758-11.3-.869-24.2-.166-19.3-.302-21.3-.75-11.2-.381 8.64-.928 12.5-1.8 12.8-.688.228-1.25-.106-1.25-.741 0-.635-.73-1.88-1.62-2.78-1.47-1.47-1.48-1.67-.0366-2.18 1.02-.357 1.29-1.03.77-1.88-.449-.726-.464-3.2-.0334-5.5.43-2.3 1.1-10 1.48-17.2s1.11-13.8 1.61-14.8.701-1.75.452-1.75-1.09-.244-1.87-.543c-.778-.299-1.46.0388-1.52.75-.0573.711-1.49 5.12-3.18 9.79s-4.24 11.8-5.66 15.8c-2.4 6.71-3.99 9.03-4.1 6-.173-4.41-6.63-26.5-8.21-28.1-1.83-1.83-1.92-1.81-3.73.951-1.67 2.54-1.9 5.81-2.35 32.6-.333 19.8-.871 30.1-1.61 30.9-.621.62-3.47.97-6.5.798l-5.39-.307-.5-10c-.421-8.42-.692-9.68-1.72-8-1.3 2.13-1.3 2.13-1.83-4.18-.174-2.07.247-3.37 1.21-3.74 1.09-.417 1.32-.0643.869 1.34-.333 1.05-.142 2.2.426 2.55.687.424 1.01-2.96.967-10.1-.0538-8.82-.367-11-1.74-12.1-1.55-1.21-1.55-1.26.0742-.699 2.09.727 2.19-.452.659-7.59-.809-3.77-.794-5.45.0572-6.47.921-1.11.775-1.29-.733-.891-1.69.442-1.86-.074-1.7-5.08.132-4.07-.126-5.32-.959-4.63-.627.52-6.52 1.19-13.1 1.5s-16.1.842-21.2 1.2l-9.25.644v-8.93l20.2.332c11.1.183 21.5.481 23 .662 2.85.342 5.07 1.66 2.79 1.66-1.03 0-1.04.299-.0442 1.5.993 1.2.993 1.8 0 3-1.28 1.55-.275 2.04 1.5.735 1.24-.908 1.32-6.5.117-7.38-.804-.584-1.24-20.3-.526-23.9.165-.825.575 3.22.909 9l.609 10.5.196-11.2c.108-6.19-.144-11.3-.56-11.3s-1.35-1.35-2.09-3.01-1.63-2.82-1.99-2.6c-.594.367-.8-5.16-.238-6.4.915-2.01.677-4-.479-4-.757 0-1.84-.87-2.41-1.93-.841-1.57-.659-2.05.979-2.57 1.11-.352 1.74-1.08 1.41-1.62-.815-1.32 3.69-13.9 4.75-13.3.457.282.838 1.5.846 2.7.0141 2.1.07 2.08 1.29-.309 1.14-2.24 1.88-2.5 7.2-2.5 5.33 0 6.05.253 7.16 2.5 1.04 2.12 4.64 16.6 9.33 37.6.625 2.8 2.04 6.57 3.15 8.39l2.01 3.31 1.52-2.89c.833-1.59 3.09-7.84 5.02-13.9 6.23-19.6 10.6-31.7 12.1-33.1 1.52-1.52 8.95-1.88 11.1-.53 1.06.674 1.23 6.12.864 27.7-.253 14.8-.873 28.9-1.38 31.4l-.918 4.5 6.55.0614c28.1.263 38.3.499 38 .875-.24.24-10.1.578-21.9.75l-21.5.313-.0393 31c-.0216 17-.387 33.1-.811 35.8l-.772 4.75h-5.77c-3.17 0-6.07-.3-6.44-.667zm-.353-55.8c.383-3.89.262-5.46-.347-4.5-.856 1.35-1.44 11.9-.605 10.9.199-.229.627-3.11.952-6.4zm-1.31-15.4c0-.458-.655-.833-1.46-.833-.801 0-1.22.375-.941.833.283.458.938.833 1.46.833s.941-.375.941-.833zm-229 69.8c-1.61-.937-1.76-3.7-1.82-34.2-.0387-18.3-.457-34.1-.93-35.2-.803-1.87-.864-1.88-.93-.121-.063 1.69-.664 1.82-5.82 1.28-3.16-.328-14.3-.917-24.8-1.31-23.6-.884-20.2-1.96 9.25-2.95l21.2-.71.189-21.1c.132-14.8.357-18.4.75-12.1l.561 9 .743-7c.409-3.85.746-11.5.75-17.1.01-13.8.146-14 12.7-13.8 13.8.211 31.3 4.45 31.3 7.58 0 .636 1.74 4.11 3.86 7.71 6.03 10.2 7.52 15.9 6.81 25.8-.614 8.7-3.38 16.5-6.22 17.6-.8.307-1.45 1.01-1.45 1.56 0 .871 9.55.901 41.2.129 2.74-.0667 2.75-.0979 2.75-7.24 0-4.87-.467-7.69-1.45-8.78-2.85-3.15-3.26-38.6-.504-43.1 1.12-1.82 23.4-2.45 49.7-1.43l18.2.713v17.8h-22.4c-19.6 0-22.5.206-23.8 1.65-1.04 1.25-1.37 5.58-1.37 17.7v16.1l4 1.39c2.2.765 8.25 1.45 13.4 1.52l9.45.132.002 16-12.4.282c-7.04.16-13 .753-13.7 1.37-1.8 1.5-1.91 39.9-.114 41.6.847.847 6.95 1.22 20.8 1.26 10.8.0317 21.4.377 23.6.767l4 .709v17l-22.2.269c-17 .205-22.2-.0196-22.2-.95 0-.948-.267-.952-1.2-.0191-.763.763-4.62 1.2-10.6 1.2-11.8-3e-5-15.2-1.57-15.2-7.02 0-1.97.392-4.01.871-4.53 1.5-1.63 2.17-11.3.824-11.8-.89-.362-.876-.506.0548-.565 1.47-.0931 1.72-3.08.25-3.08-.633 0-1-7.31-1-19.9 0-16.8.246-20.2 1.58-21.5.869-.869 1.38-2.14 1.13-2.82-.256-.707-1.01-.0571-1.74 1.51l-1.29 2.75-23.6-.417c-13-.229-22.6-.197-21.3.0725 1.26.269 3.83 2.03 5.71 3.9 4.31 4.31 7.09 13 8 25l.681 8.93-4.01 8.08c-6.7 13.5-12.3 18.3-23.6 20.3-7.46 1.35-26.5 1.35-28.8-.003zm122-.524c-.332-.332-1.19-.368-1.92-.0789-.798.319-.561.556.604.604 1.05.0434 1.64-.193 1.31-.525zm-23.7-1.46c0-1.14-2.69-1.25-3.37-.145-.269.436.379.858 1.44.938 1.06.08 1.93-.277 1.93-.792zm9.25.356c-1.24-.238-3.26-.238-4.5 0-1.24.238-.225.433 2.25.433s3.49-.195 2.25-.433zm21.5.0164c-.962-.252-2.54-.252-3.5 0-.962.252-.175.457 1.75.457s2.71-.206 1.75-.457zm-98.9-14.2c5.8-4.13 7.5-7.66 7.97-16.6.533-10.1-1.72-19.8-5.55-23.8-3.19-3.33-8.28-5.02-13.8-4.57l-4 .329v46.9l2.5.603c3.67.885 9.32-.389 12.8-2.9zm12.7-57c1.5-1.18 2.29-2.14 1.77-2.14-1.49 0-6.33 5.45-6.26 7.05.0356.811.438.519.917-.667.469-1.16 2.08-3.07 3.57-4.25zm-13-5.02c6.1-3.72 9.77-17.8 7.64-29.2-2.04-11-6.75-15.1-16.7-14.7l-6 .27-.271 21.5c-.149 11.8-.0504 22 .219 22.8.79 2.06 11.5 1.63 15.1-.611zm63.5-47.9c-.765-1.31-.991-.532-.945 3.28.0576 4.82.0942 4.88 1 1.72.612-2.12.591-3.88-.0598-5zm60.6 3.53c-.277-.688-.504-.125-.504 1.25s.227 1.94.504 1.25.277-1.81 0-2.5zm-55.7-9.46c1.92-.143 4.85-.717 6.5-1.28 2.53-.859 2.14-.941-2.5-.526-3.02.27-6.51.495-7.75.5-1.37.005-2.25.62-2.25 1.57 0 .998.45 1.28 1.25.777.688-.43 2.82-.899 4.75-1.04zm20.7-.579c.637.215 1.45-.0832 1.81-.662.42-.679-.989-1.05-3.97-1.05-2.82 0-4.38.388-4 1 .34.55 1.29 1 2.12 1 .871 0 1.23.524.867 1.25-.348.688-.0373.536.691-.338.728-.873 1.85-1.41 2.48-1.2zm15.7.785c.347-.905.005-1.5-.862-1.5-.867 0-1.21.595-.862 1.5.317.825.704 1.5.862 1.5s.545-.675.862-1.5zm19.6-.5c0-.55-.477-1-1.06-1s-.781.45-.441 1 .816 1 1.06 1 .441-.45.441-1zm72.9 133c-.0452-.229-.298-1.77-.562-3.42-.264-1.65-.902-3.43-1.42-3.95-1.19-1.21-1.23-2.85-.052-2.12.487.301 1.12-.347 1.41-1.44.286-1.09.9-1.99 1.36-1.99.986 0 .995 11.7.0103 12.7-.367.367-.704.479-.749.25zm-45.9-4.8c0-.55.45-1.28 1-1.62s1-.168 1 .382-.45 1.28-1 1.62-1 .168-1-.382zm-1-3.12c0-.55.477-1 1.06-1s.781.45.441 1-.816 1-1.06 1-.441-.45-.441-1zm-.985-4.68c.0286-1.53 1.87-3.77 2.55-3.09.37.37-.0551 1.4-.946 2.29-.89.89-1.61 1.25-1.6.798zm47.5-3.57c-.839-2.06-.006-4.75 1.47-4.75 1.2 0 1.23 1.68.0684 4.5-.755 1.84-.881 1.86-1.54.25zm-45-14.7c.228-3.09 1.52-3.67 1.52-.687 0 1.47-.375 2.67-.833 2.67-.458 0-.767-.891-.687-1.98zm.0199-8.52c0-1.27.338-2.1.75-1.85.412.255.75 1.09.75 1.85s-.338 1.59-.75 1.85-.75-.576-.75-1.85zm71-6.57c-.421-1.33-.216-2.48.523-2.94.669-.413 1.45-2.85 1.74-5.41.317-2.82.967-4.51 1.64-4.27 1.24.432 1.29 2.77.148 6.94-.519 1.9-.375 2.75.466 2.75.67 0 .957-.674.64-1.5-.317-.825-.23-1.5.193-1.5 1.52 0 3.17 2.44 3.17 4.7 0 2.38-1.54 3.18-2.22 1.15-.264-.793-1.2-.619-3 .559-2.53 1.66-2.64 1.64-3.31-.471zm-256-19.9c0-1.92.206-2.71.457-1.75.252.962.252 2.54 0 3.5s-.457.175-.457-1.75zm261-21.8-1.82-3.75-.949 2.76c-.522 1.52-1.36 2.5-1.86 2.19-1.47-.909-1.06-3.05 1.07-5.59 1.69-2.01 2.13-2.14 2.98-.861.862 1.29 1.01 1.25 1.02-.25.008-.962.39-1.75.849-1.75 1.6 0 2.09 1.28 1.15 3.03-.669 1.25-.514 2.12.535 2.99 1.83 1.52 1.95 4.98.164 4.98-.723 0-2.13-1.69-3.14-3.75zm-261-46.3c0-.582.45-.781 1-.441s1 .816 1 1.06c0 .243-.45.441-1 .441s-1-.477-1-1.06z" fill="#f00"/>
   <path d="m-295-55.7c-.755-.782-.921-11-.552-33.8.393-24.3.215-33.7-.689-36.5-2.46-7.71-4.07-5.06-12.3 20.2l-4.33 13.2-3.23-13.9c-3.29-14.2-5-18.2-7.66-18.2-.818 0-2.24 1.74-3.17 3.87-1.44 3.32-1.7 8.03-1.79 33-.0795 22-.417 29.5-1.38 30.7-1.51 1.88-9.04 2.16-10.7.395-.857-.888-1.01-16.9-.613-62.7.544-62.1 1.17-76.1 3.47-77.5 1.09-.695 10.7-.166 11.7.64.284.243 5.35 21.6 9.58 40.4 1.43 6.37 3.98 11.6 5.61 11.6 1.5 0 3.47-5.16 10.4-27.1 3.7-11.8 7.23-22.1 7.85-22.9 1.13-1.53 3.83-2.08 8.84-1.79l2.74.16v26.7c0 17.3-.398 27.9-1.14 30-.863 2.57-.837 5.39.108 11.8 1.69 11.4-.0567 70.6-2.12 71.9-1.91 1.26-9.2 1.11-10.5-.213zm-228-.628c-3.89-1.44-3.99-2.55-3.91-43.6.112-58.4 1.17-92.3 2.95-94.5 1.26-1.57 2.81-1.71 12.9-1.2 7.59.389 14.1 1.39 19.3 2.98l7.88 2.39 11.6 23.5-.006 9.41c-.009 14.9-.983 17.2-11.4 25.8-1.95 1.62-3.55 3.52-3.55 4.23s1.72 1.99 3.82 2.85c7.75 3.15 12 12.9 12.8 29.2.5 10.2.478 10.4-3.11 17.8-4.41 9.15-9.69 15.4-15.1 17.9-6.23 2.87-29.4 5.08-34.3 3.28zm25.7-14.9c2.42-1.21 5.68-4.06 7.28-6.34 2.77-3.96 2.9-4.63 2.9-15.2 0-12.9-1.71-19.4-6.11-23.2-3.42-2.98-9.6-4.94-14.1-4.49-3.16.317-3.17.336-3.79 7.54-.343 3.97-.679 14.7-.747 23.9-.103 13.9.136 17 1.44 18.3 2.19 2.27 7.97 2.02 13.1-.579zm-.456-63.9c7.52-4 10.6-11.5 10.6-25.6 0-7.16-.435-9.77-2.24-13.5-2.95-6.05-9.02-9.44-16.2-9.02l-4.98.291-.269 23.2c-.148 12.8-.0498 23.8.218 24.5.613 1.66 9.78 1.77 12.8.155zm121 78.8c-2.45-.224-5.02-.891-5.71-1.48-1.28-1.1-41.8-1.52-42.8-.449-.291.302-1.4-.476-2.46-1.73-1.28-1.5-2.1-1.86-2.43-1.05-.274.677-1.14.976-1.93.663-.786-.313-1.43-.0394-1.43.607 0 .646 1.01 1.6 2.24 2.11 2.08.867 2.03.935-.747.964-1.64.0171-4.03-.872-5.31-1.98-1.87-1.61-2.19-2.62-1.66-5.12.363-1.71 1.07-3.12 1.58-3.12.504 0 .91-4.29.901-9.54-.0104-6.54-.319-9.06-.98-7.99-.641 1.03-.97-5.45-.98-19.3-.0125-17.1.248-21.1 1.48-22.4 1.98-2.05 2.2-25 .249-25.7-1.45-.5-2.33-27.1-1.25-37.7.618-6.03.824-6.45 3.18-6.45 2 0 2.37.369 1.81 1.81-.39.993-.949 9.12-1.24 18.1-.449 13.6-.307 16.2.886 16.2 1.16 0 1.35-1.86 1.03-10.2-.234-6.04.0364-11 .665-12.2.732-1.42.74-2.38.0259-3.12-.568-.589-.883-2.17-.7-3.51.278-2.03.873-2.41 3.57-2.29 1.78.0837 3.24-.194 3.24-.617 0-1.22 13.7-1.32 14.4-.102.355.596 1.32 1.08 2.14 1.08.832 0 1.19-.502.817-1.13-.476-.797-.0493-.787 1.43.0363 1.39.772 2.11.807 2.11.103 0-1.53 7.68-1.32 8.38.222.459 1.02.706 1.01 1.18-.043.472-1.06.899-1.07 2.07-.0663 1.17 1.01 1.64.989 2.28-.0807.622-1.04 1.05-.91 1.89.582.888 1.58 1.09 1.63 1.11.274.0247-1.35 1.41-1.69 7.5-1.86l7.47-.205v15.1l-41.6-.778-1.63 2.41c-1.3 1.93-1.65 5.3-1.75 16.9-.0648 7.96-.426 13.1-.802 11.4l-.684-3.09-.516 3.33c-.284 1.83-.154 3.92.288 4.64.443.722.856.849.919.282.0629-.567.417.0889.787 1.46.758 2.81 1.07 2.88 16.8 3.83l10.2.618v15l-4.82.592c-2.65.326-8.19.329-12.3.006-10.8-.845-10.8-.897-10.8 23.4 0 14.9.313 19.6 1.41 21.2 1.31 1.86 3.11 2.04 24.6 2.52l23.2.516.294 8.16c.21 5.83-.0742 8.41-.996 9.01-.709.466-1.51.773-1.79.683-.274-.0905-2.51-.347-4.96-.571zm-55.3-6.45c.338-.567.155-1.03-.408-1.03-.563 0-.797-.611-.521-1.36.276-.746.0667-2.49-.466-3.87-.838-2.17-.977-1.85-1.03 2.39-.059 4.57.999 6.26 2.43 3.87zm7.76-.227c1.95.52 2.04.394.826-1.14-1.92-2.42-3.67-2.15-3.8.595-.0607 1.28.0894 1.79.334 1.14.248-.658 1.41-.921 2.64-.595zm-10.2-17.6c-1.27-1.32-1.51 3.19-.321 6.18.578 1.46.819 1.1 1.07-1.59.177-1.92-.159-3.98-.747-4.59zm-2.33-15.9c-.216-2.14-.396-.642-.4 3.33-.004 3.97.172 5.72.392 3.89.22-1.83.224-5.08.008-7.22zm2.94 5.72c-.318-.823-.554-.579-.602.623-.0432 1.09.192 1.7.523 1.35.331-.343.366-1.23.0786-1.98zm1.63-14.6c.804-.595.703-.735-.323-.449-1.02.284-1.53 1.87-1.61 4.98-.115 4.53-.113 4.53.323.449.242-2.26.966-4.5 1.61-4.98zm58.4-75.8c-.0118-2.21-.228-2.5-.98-1.29-1.26 2.02-1.26 4.13 0 4.13.548 0 .989-1.28.98-2.84zm74.5 119c-.231-1.28-.103-3.48.283-4.9.538-1.98.725-1.44.801 2.32.106 5.22-.393 6.4-1.08 2.58zm-.268-12.1c-.315-.528-.117-1.25.439-1.61s1.01.0757 1.01.96c0 1.81-.597 2.08-1.45.648zm-45.6-2.39c-.257-.709-.112-2.22.321-3.35.642-1.68.801-1.44.858 1.29.0728 3.49-.379 4.28-1.18 2.06zm45.5-4.23c-1.84-2.09-2.85-4.14-1.67-3.39.594.381 1.34.252 1.66-.285.321-.537.13-1.27-.423-1.62-.557-.357-.781-2.57-.502-4.97.277-2.38.948-9.9 1.49-16.7 1.58-19.9 1.82-18.9 1.26 5.16-.287 12.5-.58 22.8-.651 22.8-.0704.0846-.596-.38-1.17-1.03zm26.6-23.1c.207-1.12 1.26-1.79 2.81-1.81 1.65-.0132 2.39-.537 2.22-1.57-.182-1.07.201-.931 1.24.455 1.74 2.32 1.93 3.67.512 3.67-.548 0-.996-.518-.996-1.15 0-.706-.947-.507-2.45.516-3.12 2.12-3.75 2.1-3.33-.119zm1.96-5.95c-.015-2.85 1.37-6.26 2.07-5.09.315.53-.019 2.36-.743 4.06-.99 2.33-1.32 2.58-1.33 1.03zm-73.3-12.9c.338-.567.813-1.03 1.05-1.03.241 0 .439.464.439 1.03s-.475 1.03-1.05 1.03-.778-.464-.439-1.03zm-.786-5.16c.286-1.13.693-2.06.902-2.06s.382.928.382 2.06c0 1.13-.406 2.06-.902 2.06-.496 0-.668-.928-.382-2.06zm-184-14.4c0-7.09.159-9.99.354-6.45.194 3.55.194 9.35 0 12.9-.194 3.55-.354.645-.354-6.45zm186-3.09c0-7.09.159-9.99.354-6.45.194 3.55.194 9.35 0 12.9-.194 3.55-.354.645-.354-6.45zm74.2-1.29-2.17-4.38-1.19 2.98c-.809 2.03-1.43 2.57-1.95 1.7-.45-.755.0711-2.14 1.27-3.39l2.04-2.11 2.53 2.99c2.21 2.61 3.5 6.6 2.12 6.6-.263 0-1.46-1.97-2.65-4.38zm-75.3-18.5c-.657-.681-1.19-3.7-1.19-6.71 0-3.01-.432-5.47-.961-5.47-.528 0-1.44-.928-2.03-2.06-.723-1.4-.734-2.06-.035-2.06.567 0 1.08.812 1.13 1.81.0654 1.19.363.926.872-.774.425-1.42.577-3.53.339-4.7-.238-1.17.465-4.42 1.56-7.22l2-5.1.039 4.13c.0287 3.03-.217 3.72-.926 2.58-.58-.93-.971-1.06-.98-.319-.008.676.354 1.47.806 1.75.778.498 1.69 25.4.932 25.4-.197 0-.897-.557-1.55-1.24zm-82.1-30.5c3.42-.201 9.02-.201 12.4 0s.622.366-6.22.366c-6.85 0-9.65-.165-6.22-.366zm29.4-.005c4.82-.19 12.4-.189 16.9.002 4.49.191.549.346-8.76.345-9.31-.001-13-.157-8.17-.347z" fill="#fff" stroke-width="1.01"/>
  </g>
 </g>
</svg>
